# FreeCAD v0.19 build24267 +148 (Git) Arch module
# http://www.freecadweb.org
mtllib BaseCube.mtl
o Body
usemtl color_cccccc
v 37.037045 36.574074 50.0
v 37.037045 -37.037037 50.0
v 50.0 -50.0 50.0
v 50.0 50.0 50.0
v -50.0 -50.0 50.0
v -45.370365 -37.037037 50.0
v -50.0 50.0 50.0
v -45.370365 36.574074 50.0
v 45.0 -50.0 45.0
v 45.0 -50.0 -45.0
v 50.0 -50.0 -50.0
v -45.0 -50.0 -45.0
v 50.0 -50.0 50.0
v -50.0 -50.0 -50.0
v -45.0 -50.0 45.0
v -50.0 -50.0 50.0
v -50.0 -50.0 -50.0
v -50.0 -50.0 50.0
v -50.0 50.0 50.0
v -50.0 50.0 -50.0
v 50.0 -50.0 50.0
v 50.0 -50.0 -50.0
v 50.0 50.0 50.0
v 50.0 50.0 -50.0
v -50.0 50.0 50.0
v 50.0 50.0 50.0
v 45.0 50.0 45.0
v -45.0 50.0 45.0
v 45.0 50.0 -45.0
v 50.0 50.0 -50.0
v -45.0 50.0 -45.0
v -50.0 50.0 -50.0
v 37.037045 36.574074 -50.0
v -45.0 36.574074 -45.0
v -45.370365 36.574074 -50.0
v 37.037045 36.574074 -45.0
v -45.0 36.574074 45.0
v 37.037045 36.574074 45.0
v -45.370365 -2.156215 -3.734675
v -45.370365 -3.303514 -2.771977
v -45.370365 -37.037037 -50.0
v -45.370365 -4.05236 -1.474938
v -45.370365 -0.748846 -4.246915
v -45.370365 36.574074 -50.0
v -45.370365 -4.312431 -0.0
v -45.370365 0.748846 -4.246915
v -45.370365 2.156215 -3.734675
v -45.370365 3.303514 -2.771977
v -45.370365 4.05236 -1.474938
v -45.370365 4.312431 -0.0
v -45.370365 -37.037037 50.0
v -45.370365 -2.156215 3.734675
v -45.370365 -0.748846 4.246915
v -45.370365 -3.303514 2.771977
v -45.370365 -4.05236 1.474938
v -45.370365 36.574074 50.0
v -45.370365 4.05236 1.474938
v -45.370365 3.303514 2.771977
v -45.370365 2.156215 3.734675
v -45.370365 0.748846 4.246915
v -45.0 -37.037037 -45.0
v 37.037045 -37.037037 -45.0
v 37.037045 -37.037037 -50.0
v -45.370365 -37.037037 -50.0
v -45.0 -37.037037 45.0
v 37.037045 -37.037037 45.0
v -50.0 50.0 -50.0
v 50.0 50.0 -50.0
v 50.0 -50.0 -50.0
v -50.0 -50.0 -50.0
v -45.0 50.0 45.0
v 45.0 50.0 45.0
v -45.0 -50.0 45.0
v 45.0 -50.0 45.0
v -45.0 -50.0 -45.0
v -45.0 50.0 -45.0
v 45.0 50.0 -45.0
v 45.0 -50.0 -45.0
v 45.0 2.156215 3.734675
v 45.0 3.303514 2.771977
v 45.0 4.05236 1.474938
v 45.0 0.748846 4.246915
v 45.0 4.312431 0.0
v 45.0 50.0 -45.0
v 45.0 -0.748846 4.246915
v 45.0 4.05236 -1.474938
v 45.0 3.303514 -2.771977
v 45.0 2.156215 -3.734675
v 45.0 0.748846 -4.246915
v 45.0 -0.748846 -4.246915
v 45.0 -50.0 45.0
v 45.0 -4.05236 1.474938
v 45.0 -4.312431 0.0
v 45.0 -3.303514 2.771977
v 45.0 -2.156215 3.734675
v 45.0 -50.0 -45.0
v 45.0 -2.156215 -3.734675
v 45.0 -3.303514 -2.771977
v 45.0 -4.05236 -1.474938
vn 0.0 0.0 1.0
vn 0.0 0.0 1.0
vn 0.0 0.0 1.0
vn -0.0 0.0 1.0
vn 0.0 0.0 1.0
vn -0.0 0.0 1.0
vn 0.0 0.0 1.0
vn 0.0 0.0 1.0
vn 0.0 -1.0 0.0
vn 0.0 -1.0 0.0
vn 0.0 -1.0 -0.0
vn 0.0 -1.0 0.0
vn 0.0 -1.0 0.0
vn 0.0 -1.0 0.0
vn 0.0 -1.0 0.0
vn 0.0 -1.0 0.0
vn -1.0 0.0 0.0
vn -1.0 0.0 0.0
vn 1.0 -0.0 0.0
vn 1.0 0.0 0.0
vn -0.0 1.0 0.0
vn 0.0 1.0 -0.0
vn 0.0 1.0 0.0
vn 0.0 1.0 -0.0
vn -0.0 1.0 0.0
vn 0.0 1.0 0.0
vn 0.0 1.0 0.0
vn 0.0 1.0 -0.0
vn 0.0 -1.0 0.0
vn -0.0 -1.0 -0.0
vn 0.0 -1.0 -0.0
vn -0.0 -1.0 0.0
vn 0.0 -1.0 0.0
vn 0.0 -1.0 -0.0
vn 1.0 0.0 0.0
vn 1.0 0.0 0.0
vn 1.0 0.0 0.0
vn 1.0 0.0 0.0
vn 1.0 0.0 0.0
vn 1.0 0.0 0.0
vn 1.0 0.0 0.0
vn 1.0 0.0 0.0
vn 1.0 0.0 0.0
vn 1.0 0.0 0.0
vn 1.0 0.0 0.0
vn 1.0 0.0 0.0
vn 1.0 0.0 0.0
vn 1.0 0.0 0.0
vn 1.0 0.0 0.0
vn 1.0 0.0 0.0
vn 1.0 0.0 0.0
vn 1.0 0.0 0.0
vn 1.0 0.0 0.0
vn 1.0 0.0 0.0
vn 1.0 0.0 0.0
vn 1.0 0.0 0.0
vn -0.0 1.0 0.0
vn 0.0 1.0 0.0
vn 0.0 1.0 0.0
vn -0.0 1.0 0.0
vn 0.0 1.0 0.0
vn 0.0 1.0 -0.0
vn -1.0 0.0 0.0
vn -1.0 0.0 0.0
vn 0.0 0.0 -1.0
vn 0.0 0.0 -1.0
vn 0.0 0.0 -1.0
vn 0.0 0.0 -1.0
vn 0.0 0.0 -1.0
vn 0.0 0.0 -1.0
vn 0.0 0.0 -1.0
vn 0.0 0.0 -1.0
vn 0.0 0.0 -1.0
vn 0.0 0.0 -1.0
vn -0.0 0.0 -1.0
vn 0.0 0.0 -1.0
vn 0.0 0.0 -1.0
vn 0.0 0.0 -1.0
vn 1.0 0.0 0.0
vn 1.0 -0.0 0.0
vn -0.0 0.0 1.0
vn 0.0 0.0 1.0
vn 0.0 -0.0 1.0
vn 0.0 0.0 1.0
vn 0.0 0.0 1.0
vn 0.0 0.0 1.0
vn -1.0 0.0 0.0
vn -1.0 0.0 0.0
vn -1.0 0.0 0.0
vn -1.0 0.0 0.0
vn -1.0 0.0 0.0
vn -1.0 0.0 0.0
vn -1.0 0.0 0.0
vn -1.0 0.0 0.0
vn -1.0 0.0 0.0
vn -1.0 0.0 0.0
vn -1.0 0.0 0.0
vn -1.0 0.0 0.0
vn -1.0 0.0 0.0
vn -1.0 0.0 0.0
vn -1.0 0.0 0.0
vn -1.0 0.0 0.0
vn -1.0 0.0 0.0
vn -1.0 0.0 0.0
vn -1.0 0.0 0.0
vn -1.0 0.0 0.0
vn -1.0 0.0 0.0
vn -1.0 0.0 0.0
vn 1.0 0.0 0.0
vn 1.0 -0.0 0.0
vn -1.0 0.0 0.0
vn -1.0 0.0 0.0
vn -2.1206690091351047e-16 0.9848077297210693 0.17364807426929474
vn 0.0 0.9848077297210693 0.17364807426929474
vn 0.0 0.8660253882408142 0.5000000596046448
vn -0.0 0.8660253882408142 0.5000000596046448
vn 0.0 0.6427875757217407 0.7660444974899292
vn -0.0 0.6427875757217407 0.7660444974899292
vn 0.0 0.3420201539993286 0.9396926164627075
vn -0.0 0.3420201539993286 0.9396926164627075
vn 0.0 0.0 1.0
vn -0.0 0.0 1.0
vn 0.0 -0.3420201539993286 0.9396926164627075
vn 0.0 -0.3420201539993286 0.9396926164627075
vn 0.0 -0.6427875757217407 0.7660444974899292
vn 0.0 -0.6427875757217407 0.7660444974899292
vn 0.0 -0.8660253882408142 0.5000000596046448
vn 0.0 -0.8660253882408142 0.5000000596046448
vn 2.0535387363894452e-16 -0.9848077297210693 -0.17364807426929474
vn 0.0 -0.9848077297210693 0.17364807426929474
vn 0.0 -0.9848077297210693 0.17364807426929474
vn -0.0 -0.8660253882408142 -0.5000000596046448
vn 0.0 -0.9848077297210693 -0.17364807426929474
vn 0.0 -0.8660253882408142 -0.5000000596046448
vn 0.0 -0.6427875757217407 -0.7660444974899292
vn 0.0 -0.6427875757217407 -0.7660444974899292
vn 0.0 -0.3420201539993286 -0.9396926164627075
vn 0.0 -0.3420201539993286 -0.9396926164627075
vn 0.0 0.0 -1.0
vn 0.0 0.0 -1.0
vn 0.0 0.3420201539993286 -0.9396926164627075
vn 0.0 0.3420201539993286 -0.9396926164627075
vn 0.0 0.6427875757217407 -0.7660444974899292
vn 0.0 0.6427875757217407 -0.7660444974899292
vn 0.0 0.8660253882408142 -0.5000000596046448
vn 0.0 0.8660253882408142 -0.5000000596046448
vn 0.0 0.9848077297210693 -0.17364807426929474
vn 0.0 0.9848077297210693 -0.17364807426929474
f 1//1 2//1 3//1 
f 4//2 1//2 3//2 
f 5//3 3//3 2//3 
f 6//4 5//4 2//4 
f 7//5 8//5 1//5 
f 7//6 1//6 4//6 
f 7//7 5//7 6//7 
f 7//8 6//8 8//8 
f 9//9 10//9 11//9 
f 12//10 11//10 10//10 
f 13//11 9//11 11//11 
f 14//12 11//12 12//12 
f 15//13 9//13 13//13 
f 16//14 15//14 13//14 
f 16//15 14//15 12//15 
f 16//16 12//16 15//16 
f 17//17 18//17 19//17 
f 17//18 19//18 20//18 
f 21//19 22//19 23//19 
f 23//20 22//20 24//20 
f 25//21 26//21 27//21 
f 28//22 25//22 27//22 
f 29//23 27//23 26//23 
f 30//24 29//24 26//24 
f 31//25 29//25 30//25 
f 32//26 31//26 30//26 
f 32//27 25//27 31//27 
f 31//28 25//28 28//28 
f 33//29 34//29 35//29 
f 36//30 34//30 33//30 
f 1//31 37//31 38//31 
f 1//32 8//32 37//32 
f 8//33 35//33 37//33 
f 37//34 35//34 34//34 
f 39//35 40//35 41//35 
f 42//36 41//36 40//36 
f 43//37 41//37 44//37 
f 43//38 39//38 41//38 
f 45//39 41//39 42//39 
f 46//40 43//40 44//40 
f 47//41 46//41 44//41 
f 48//42 47//42 44//42 
f 49//43 48//43 44//43 
f 50//44 49//44 44//44 
f 51//45 52//45 53//45 
f 51//46 54//46 52//46 
f 51//47 55//47 54//47 
f 51//48 45//48 55//48 
f 51//49 41//49 45//49 
f 56//50 57//50 50//50 
f 56//51 58//51 57//51 
f 56//52 59//52 58//52 
f 56//53 60//53 59//53 
f 56//54 53//54 60//54 
f 56//55 51//55 53//55 
f 56//56 50//56 44//56 
f 61//57 62//57 63//57 
f 61//58 63//58 64//58 
f 65//59 2//59 66//59 
f 6//60 2//60 65//60 
f 64//61 6//61 61//61 
f 61//62 6//62 65//62 
f 66//63 1//63 38//63 
f 2//64 1//64 66//64 
f 67//65 68//65 33//65 
f 69//66 63//66 33//66 
f 69//67 33//67 68//67 
f 35//68 67//68 33//68 
f 70//69 64//69 63//69 
f 70//70 63//70 69//70 
f 70//71 67//71 64//71 
f 64//72 67//72 35//72 
f 38//73 37//73 71//73 
f 38//74 71//74 72//74 
f 66//75 73//75 65//75 
f 74//76 66//76 38//76 
f 74//77 38//77 72//77 
f 74//78 73//78 66//78 
f 65//79 75//79 61//79 
f 73//80 75//80 65//80 
f 76//81 36//81 77//81 
f 78//82 36//82 62//82 
f 78//83 77//83 36//83 
f 34//84 36//84 76//84 
f 75//85 62//85 61//85 
f 75//86 78//86 62//86 
f 79//87 27//87 80//87 
f 81//88 80//88 27//88 
f 82//89 27//89 79//89 
f 83//90 27//90 84//90 
f 83//91 81//91 27//91 
f 85//92 27//92 82//92 
f 86//93 83//93 84//93 
f 87//94 86//94 84//94 
f 88//95 87//95 84//95 
f 89//96 88//96 84//96 
f 90//97 89//97 84//97 
f 91//98 92//98 93//98 
f 91//99 94//99 92//99 
f 91//100 95//100 94//100 
f 91//101 85//101 95//101 
f 91//102 27//102 85//102 
f 96//103 97//103 90//103 
f 96//104 98//104 97//104 
f 96//105 99//105 98//105 
f 96//106 93//106 99//106 
f 96//107 91//107 93//107 
f 96//108 90//108 84//108 
f 71//109 34//109 76//109 
f 37//110 34//110 71//110 
f 63//111 36//111 33//111 
f 62//112 36//112 63//112 
f 50//113 57//113 83//113 
f 83//114 57//114 81//114 
f 81//115 58//115 80//115 
f 57//116 58//116 81//116 
f 80//117 59//117 79//117 
f 58//118 59//118 80//118 
f 79//119 60//119 82//119 
f 59//120 60//120 79//120 
f 82//121 53//121 85//121 
f 60//122 53//122 82//122 
f 85//123 52//123 95//123 
f 53//124 52//124 85//124 
f 95//125 54//125 94//125 
f 52//126 54//126 95//126 
f 94//127 55//127 92//127 
f 54//128 55//128 94//128 
f 93//129 45//129 99//129 
f 92//130 45//130 93//130 
f 55//131 45//131 92//131 
f 99//132 42//132 98//132 
f 45//133 42//133 99//133 
f 42//134 40//134 98//134 
f 98//135 39//135 97//135 
f 40//136 39//136 98//136 
f 97//137 43//137 90//137 
f 39//138 43//138 97//138 
f 90//139 46//139 89//139 
f 43//140 46//140 90//140 
f 46//141 47//141 89//141 
f 89//142 47//142 88//142 
f 47//143 48//143 88//143 
f 88//144 48//144 87//144 
f 48//145 49//145 87//145 
f 87//146 49//146 86//146 
f 49//147 50//147 86//147 
f 86//148 50//148 83//148 
