# Created by FreeCAD <http://www.freecadweb.org>
v -3.854533 5.684589 0.000000
v -3.854533 -5.684589 0.000000
v -3.854533 5.684589 2.000000
v -3.854533 -5.684589 2.000000
v -1.469604 -5.684589 0.000000
v -1.469604 -5.684589 2.000000
v -1.469604 -1.000000 0.000000
v -1.469604 -1.000000 2.000000
v 6.851853 -1.000000 0.000000
v 6.851853 -1.000000 2.000000
v 6.851853 1.000000 0.000000
v 6.851853 1.000000 2.000000
v -1.469604 1.000000 0.000000
v -1.469604 1.000000 2.000000
v -1.469604 5.684589 0.000000
v -1.469604 5.684589 2.000000
v -1.469604 -1.000000 2.000000
v -3.854533 -5.684589 2.000000
v -1.469604 -5.684589 2.000000
v -1.469604 1.000000 2.000000
v -3.854533 5.684589 2.000000
v -1.469604 5.684589 2.000000
v 6.851853 1.000000 2.000000
v 6.851853 -1.000000 2.000000
vn -1.000000 0.000000 0.000000
vn -1.000000 -0.000000 0.000000
vn 0.000000 -1.000000 0.000000
vn 0.000000 -1.000000 0.000000
vn 1.000000 0.000000 0.000000
vn 1.000000 -0.000000 0.000000
vn 0.000000 -1.000000 0.000000
vn 0.000000 -1.000000 0.000000
vn 1.000000 0.000000 0.000000
vn 1.000000 -0.000000 0.000000
vn 0.000000 1.000000 -0.000000
vn 0.000000 1.000000 0.000000
vn 1.000000 0.000000 0.000000
vn 1.000000 -0.000000 0.000000
vn 0.000000 1.000000 -0.000000
vn 0.000000 1.000000 0.000000
vn 0.000000 0.000000 -1.000000
vn 0.000000 0.000000 -1.000000
vn 0.000000 0.000000 -1.000000
vn 0.000000 0.000000 -1.000000
vn 0.000000 0.000000 -1.000000
vn 0.000000 0.000000 -1.000000
vn 0.000000 0.000000 1.000000
vn 0.000000 0.000000 1.000000
vn 0.000000 0.000000 1.000000
vn 0.000000 0.000000 1.000000
vn 0.000000 0.000000 1.000000
vn 0.000000 0.000000 1.000000
f 1//1 2//1 3//1
f 3//2 2//2 4//2
f 2//3 5//3 4//3
f 4//4 5//4 6//4
f 5//5 7//5 6//5
f 6//6 7//6 8//6
f 7//7 9//7 8//7
f 8//8 9//8 10//8
f 9//9 11//9 10//9
f 10//10 11//10 12//10
f 11//11 13//11 12//11
f 12//12 13//12 14//12
f 13//13 15//13 14//13
f 14//14 15//14 16//14
f 15//15 1//15 16//15
f 16//16 1//16 3//16
f 2//17 7//17 5//17
f 2//18 13//18 7//18
f 2//19 1//19 13//19
f 1//20 15//20 13//20
f 7//21 11//21 9//21
f 13//22 11//22 7//22
f 17//23 18//23 19//23
f 20//24 18//24 17//24
f 21//25 18//25 20//25
f 22//26 21//26 20//26
f 23//27 17//27 24//27
f 23//28 20//28 17//28
